<svg width="1920" height="1080" viewBox="0 0 1920 1080" xmlns="http://www.w3.org/2000/svg"><rect width="1920" height="1080" fill="#ffffff"/><path d="M 0,1080 C 0,1080 0,180 0,180 C 129.85128205128208,164.98461538461538 259.70256410256417,149.96923076923076 358,155 C 456.29743589743583,160.03076923076924 523.0410256410256,185.1076923076923 612,189 C 700.9589743589744,192.8923076923077 812.1333333333332,175.6 943,186 C 1073.8666666666668,196.4 1224.425641025641,234.49230769230772 1336,245 C 1447.574358974359,255.50769230769228 1520.1641025641027,238.43076923076924 1611,223 C 1701.8358974358973,207.56923076923076 1810.9179487179485,193.7846153846154 1920,180 C 1920,180 1920,1080 1920,1080 Z" fill="#80ff80" opacity="0.09999999999999999"/><path d="M 0,1080 C 0,1080 0,360 0,360 C 74.70256410256408,354.0974358974359 149.40512820512816,348.1948717948718 264,336 C 378.59487179487184,323.8051282051282 533.0820512820515,305.3179487179487 667,311 C 800.9179487179485,316.6820512820513 914.2666666666667,346.5333333333333 1004,346 C 1093.7333333333333,345.4666666666667 1159.851282051282,314.5487179487179 1261,329 C 1362.148717948718,343.4512820512821 1498.3282051282051,403.2717948717949 1614,416 C 1729.6717948717949,428.7282051282051 1824.8358974358976,394.36410256410255 1920,360 C 1920,360 1920,1080 1920,1080 Z" fill="#80ff80" opacity="0.19999999999999998"/><path d="M 0,1080 C 0,1080 0,540 0,540 C 128.46666666666664,566.8512820512819 256.9333333333333,593.702564102564 363,607 C 469.0666666666667,620.297435897436 552.7333333333335,620.0410256410257 652,590 C 751.2666666666665,559.9589743589743 866.1333333333332,500.1333333333333 978,512 C 1089.8666666666668,523.8666666666667 1198.7333333333333,607.4256410256411 1300,606 C 1401.2666666666667,604.5743589743589 1494.9333333333334,518.1641025641027 1597,493 C 1699.0666666666666,467.8358974358974 1809.5333333333333,503.91794871794866 1920,540 C 1920,540 1920,1080 1920,1080 Z" fill="#80ff80" opacity="0.3"/><path d="M 0,1080 C 0,1080 0,720 0,720 C 90.31282051282051,734.9794871794873 180.62564102564102,749.9589743589744 284,745 C 387.374358974359,740.0410256410256 503.81025641025656,715.1435897435897 616,695 C 728.1897435897434,674.8564102564103 836.1333333333334,659.4666666666666 953,669 C 1069.8666666666666,678.5333333333334 1195.6564102564103,712.9897435897437 1290,741 C 1384.3435897435897,769.0102564102563 1447.2410256410255,790.574358974359 1547,786 C 1646.7589743589745,781.425641025641 1783.3794871794871,750.7128205128205 1920,720 C 1920,720 1920,1080 1920,1080 Z" fill="#80ff80" opacity="0.39999999999999997"/><path d="M 0,1080 C 0,1080 0,900 0,900 C 110.29743589743589,901.925641025641 220.59487179487178,903.851282051282 318,908 C 415.4051282051282,912.148717948718 499.9179487179488,918.5205128205129 612,922 C 724.0820512820512,925.4794871794871 863.7333333333333,926.0666666666667 991,927 C 1118.2666666666667,927.9333333333333 1233.1487179487178,929.2128205128206 1323,926 C 1412.8512820512822,922.7871794871794 1477.671794871795,915.0820512820512 1573,910 C 1668.328205128205,904.9179487179488 1794.1641025641024,902.4589743589744 1920,900 C 1920,900 1920,1080 1920,1080 Z" fill="#80ff80" opacity="0.49999999999999994"/></svg>